<?xml version="1.0" encoding="UTF-8"?>
<svg width="400px" height="486px" viewBox="0 0 400 486" version="1.1" xmlns="http://www.w3.org/2000/svg" xmlns:xlink="http://www.w3.org/1999/xlink">
    <title>Group 2</title>
    <g id="Page-1" stroke="none" stroke-width="1" fill="none" fill-rule="evenodd">
        <g id="Group-2">
            <g id="Group-Copy-4" transform="translate(179.378049, 265.853659) scale(-1, 1) rotate(-180.000000) translate(-179.378049, -265.853659) translate(44.878049, 45.853659)">
                <path d="M-5.68434189e-14,0 C25.4089593,30.808888 43.6606843,53.4887765 54.7551749,68.0396656 C95.1040829,120.958948 126.477762,166.03102 149.895677,197.357825 C182.97221,241.605236 211.243822,280.478916 234.710511,313.978865 C239.695075,321.329496 240.451437,326.087062 236.979599,328.251561 C233.50776,330.41606 229.226811,328.202546 224.136749,321.61102 C201.246863,289.975894 173.934437,251.370032 142.199471,205.793431 C119.037149,172.52855 86.6256053,128.553315 46.7737357,70.7613304 C36.940643,56.5016744 21.3493977,32.9145643 -5.68434189e-14,0 Z M202.254372,276.423251 C200.814815,274.804319 199.640313,274.284096 198.730866,274.862582 C197.821419,275.441069 197.821419,276.80518 198.730866,278.954915 L198.730866,278.954915 L229.728561,321.75406 C231.46245,323.940742 232.818827,324.644438 233.797692,323.865148 C234.776556,323.085858 234.515567,321.523801 233.014723,319.178977 L233.014723,319.178977 Z" id="Combined-Shape" fill="#A7A7A7"></path>
                <path d="M268.365898,274.634146 C261.093155,278.417768 255.789844,281.275126 252.455965,283.206219 C236.501412,292.447627 223.712879,301.081779 214.163144,308.266917 C188.18717,327.811016 164.157206,347.581477 147.354169,365.556896 C126.995866,387.335639 114.146341,406.63745 114.146341,418.775899 C114.146341,439.952236 137.148903,437.794875 165.283485,422.287534 C195.766772,405.485624 232.308457,374.012184 253.060382,366.701457 C263.434533,363.046732 263.523011,369.712378 263.345774,374.715205 C263.066286,382.604256 256.491052,394.548776 250.626952,404.955123 C245.147858,414.678241 241.01783,423.011848 239.866674,426.728181 C238.482934,431.195375 237.501695,433.986091 238.132722,436.214326 C239.675389,441.661678 249.252733,440.149788 257.490268,429.260879 C255.024776,431.651283 253.231951,433.264171 252.111792,434.099542 C248.704168,436.640816 245.891552,437.774273 244.385152,437.888997 C243.142397,437.983643 241.736435,437.930249 240.79184,437.294492 C238.774683,435.936848 239.210074,432.666419 241.67889,427.254467 C242.896088,424.586218 245.878775,419.43702 250.626952,411.806874 C262.452916,391.518509 268.365898,379.154619 268.365898,374.715205 C268.365898,368.056083 266.296453,361.957211 259.678417,360.658471 C253.060382,359.359731 237.969171,367.089028 231.848005,370.902116 C227.767227,373.444175 204.756699,388.275854 162.816419,415.397153 L144.797546,424.164621 C130.383486,429.81053 122.529837,428.524064 121.236599,420.305222 C119.943361,412.086381 129.952555,395.618679 151.264179,370.902116 C175.41821,346.145153 191.71605,330.547589 200.157701,324.109422 C205.820514,319.790582 215.761668,310.404444 234.289376,297.037427 C240.350612,292.664482 251.709453,285.196722 268.365898,274.634146 Z" id="Path-3" fill="#FF585D"></path>
            </g>
            <rect id="Rectangle-Copy-4" fill="#131313" transform="translate(200.000000, 200.000000) scale(-1, 1) rotate(-180.000000) translate(-200.000000, -200.000000) " x="0" y="0" width="400" height="400" rx="83.902439"></rect>
            <g id="Group-Copy-3" transform="translate(236.048780, 185.853659) scale(-1, 1) rotate(-180.000000) translate(-236.048780, -185.853659) translate(158.048780, 45.853659)">
                <path d="M3.41737066,10.0734346 C-1.10251925,3.84896937 7.07369985,-3.22647073 11.6869983,3.14524459 C20.8748258,15.8351285 29.209576,27.3043039 36.7249448,37.3578245 C69.8014786,81.605236 98.07309,120.478916 121.539779,153.978865 C126.524343,161.329496 127.280706,166.087062 123.808867,168.251561 C120.337029,170.41606 116.056079,168.202546 110.966018,161.61102 C88.0761315,129.975894 60.7637054,91.3700315 29.0287393,45.7934313 C20.8324778,34.0222595 12.7605749,22.9402193 3.41737066,10.0734346 Z M89.0836406,116.423251 C87.6440832,114.804319 86.469581,114.284096 85.560134,114.862582 C84.650687,115.441069 84.650687,116.80518 85.560134,118.954915 L85.560134,118.954915 L116.557829,161.75406 C118.291719,163.940742 119.648096,164.644438 120.62696,163.865148 C121.605825,163.085858 121.344835,161.523801 119.843991,159.178977 L119.843991,159.178977 Z" id="Combined-Shape" fill="#A7A7A7"></path>
                <path d="M155.195166,114.634146 C147.922423,118.417768 142.619112,121.275126 139.285233,123.206219 C123.33068,132.447627 110.542147,141.081779 100.992412,148.266917 C75.0164382,167.811016 50.9864741,187.581477 34.183437,205.556896 C13.8251343,227.335639 0.975609756,246.63745 0.975609756,258.775899 C0.975609756,279.952236 23.9781714,277.794875 52.1127537,262.287534 C82.5960399,245.485624 119.137725,214.012184 139.88965,206.701457 C150.263801,203.046732 150.352279,209.712378 150.175042,214.715205 C149.895554,222.604256 143.320321,234.548776 137.45622,244.955123 C131.977126,254.678241 127.847099,263.011848 126.695942,266.728181 C125.312202,271.195375 124.330963,273.986091 124.96199,276.214326 C126.504658,281.661678 136.082001,280.149788 144.319536,269.260879 C141.854044,271.651283 140.061219,273.264171 138.94106,274.099542 C135.533436,276.640816 132.72082,277.774273 131.21442,277.888997 C129.971666,277.983643 128.565703,277.930249 127.621109,277.294492 C125.603951,275.936848 126.039343,272.666419 128.508158,267.254467 C129.725356,264.586218 132.708043,259.43702 137.45622,251.806874 C149.282184,231.518509 155.195166,219.154619 155.195166,214.715205 C155.195166,208.056083 153.125721,201.957211 146.507686,200.658471 C139.88965,199.359731 124.79844,207.089028 118.677273,210.902116 C114.596495,213.444175 91.5859668,228.275854 49.6456872,255.397153 L31.626814,264.164621 C17.2127538,269.81053 9.35910491,268.524064 8.0658672,260.305222 C6.77262949,252.086381 16.7818228,235.618679 38.0934472,210.902116 C62.2474779,186.145153 78.5453184,170.547589 86.9869688,164.109422 C92.6497827,159.790582 102.590936,150.404444 121.118645,137.037427 C127.17988,132.664482 138.538721,125.196722 155.195166,114.634146 Z" id="Path-3" fill="#FF585D"></path>
            </g>
        </g>
    </g>
</svg>